<svg width="40" height="31" viewBox="0 0 40 31" fill="none" xmlns="http://www.w3.org/2000/svg">
<path opacity="0.15" fill-rule="evenodd" clip-rule="evenodd" d="M5.17866 0.689606C3.11938 0.689606 1.45001 1.29603 1.45001 2.04408V25.0702C1.45001 25.8183 3.11938 26.4247 5.17866 26.4247H34.8214C36.8807 26.4247 38.55 25.8183 38.55 25.0702V2.04408C38.55 1.29603 36.8807 0.689606 34.8214 0.689606H28.7867V1.36685H11.213V0.689606H5.17866Z" fill="url(#paint0_linear_1_12)"/>
<path d="M23.44 16.3802C22.2317 16.3802 21.2517 17.3878 21.2517 18.6302V28.5268C21.2517 29.7692 22.2333 30.7767 23.4417 30.7767C24.6517 30.7767 25.6317 29.7692 25.6317 28.5249V18.6302C25.6317 17.3878 24.65 16.3802 23.44 16.3802ZM30.3267 7.34338C29.1167 7.34338 28.1367 8.35097 28.1367 9.5952V28.4584C28.1367 29.7007 29.12 30.7083 30.3267 30.7083C31.5367 30.7083 32.5167 29.7007 32.5167 28.4584V9.5952C32.5167 8.35097 31.5367 7.34338 30.3267 7.34338ZM16.5567 12.9544C15.3483 12.9544 14.3683 13.962 14.3683 15.2063V28.5268C14.3683 29.7692 15.35 30.7767 16.56 30.7767C17.7683 30.7767 18.7483 29.7692 18.7483 28.5249V15.2044C18.7483 13.962 17.7667 12.9544 16.5567 12.9544ZM9.67333 21.0854C8.46333 21.0854 7.48167 22.0948 7.48167 23.3372L7.48333 28.5268C7.48333 29.7692 8.46333 30.7767 9.67333 30.7767C10.8833 30.7767 11.8633 29.7692 11.8617 28.5249V23.3372C11.8617 22.093 10.8833 21.0854 9.67333 21.0854ZM40 4.84937V21.7898C40 24.465 37.8833 26.641 35.2817 26.641H34.475V24.9826H35.2817C36.9933 24.9826 38.3867 23.5498 38.3867 21.7898V4.84937C38.3867 3.08932 36.9933 1.65836 35.2817 1.65836H4.71833C3.00667 1.65836 1.61333 3.08932 1.61333 4.84937V21.7898C1.61333 23.5498 3.00667 24.9826 4.71833 24.9826H5.525V26.641H4.71667C2.11667 26.6392 0 24.4631 0 21.7879V4.84937C0 2.17602 2.11667 1.1772e-06 4.71667 1.1772e-06H35.2833C37.8833 -0.00184761 40 2.17417 40 4.84937Z" fill="#FFBC5E"/>
<path d="M23.44 16.3802C22.2317 16.3802 21.2517 17.3878 21.2517 18.6302V28.5268C21.2517 29.7692 22.2333 30.7767 23.4417 30.7767C24.6517 30.7767 25.6317 29.7692 25.6317 28.5249V18.6302C25.6317 17.3878 24.65 16.3802 23.44 16.3802ZM30.3267 7.34338C29.1167 7.34338 28.1367 8.35097 28.1367 9.5952V28.4584C28.1367 29.7007 29.12 30.7083 30.3267 30.7083C31.5367 30.7083 32.5167 29.7007 32.5167 28.4584V9.5952C32.5167 8.35097 31.5367 7.34338 30.3267 7.34338ZM16.5567 12.9544C15.3483 12.9544 14.3683 13.962 14.3683 15.2063V28.5268C14.3683 29.7692 15.35 30.7767 16.56 30.7767C17.7683 30.7767 18.7483 29.7692 18.7483 28.5249V15.2044C18.7483 13.962 17.7667 12.9544 16.5567 12.9544ZM9.67333 21.0854C8.46333 21.0854 7.48167 22.0948 7.48167 23.3372L7.48333 28.5268C7.48333 29.7692 8.46333 30.7767 9.67333 30.7767C10.8833 30.7767 11.8633 29.7692 11.8617 28.5249V23.3372C11.8617 22.093 10.8833 21.0854 9.67333 21.0854ZM40 4.84937V21.7898C40 24.465 37.8833 26.641 35.2817 26.641H34.475V24.9826H35.2817C36.9933 24.9826 38.3867 23.5498 38.3867 21.7898V4.84937C38.3867 3.08932 36.9933 1.65836 35.2817 1.65836H4.71833C3.00667 1.65836 1.61333 3.08932 1.61333 4.84937V21.7898C1.61333 23.5498 3.00667 24.9826 4.71833 24.9826H5.525V26.641H4.71667C2.11667 26.6392 0 24.4631 0 21.7879V4.84937C0 2.17602 2.11667 1.1772e-06 4.71667 1.1772e-06H35.2833C37.8833 -0.00184761 40 2.17417 40 4.84937Z" fill="#FFDB6E" fill-opacity="0.25"/>
<defs>
<linearGradient id="paint0_linear_1_12" x1="3.55235" y1="0.689606" x2="23.6664" y2="32.709" gradientUnits="userSpaceOnUse">
<stop offset="0.259336" stop-color="#FFDB6E"/>
<stop offset="1" stop-color="#FFBC5E"/>
</linearGradient>
</defs>
</svg>
