<svg width="40" height="46" viewBox="0 0 40 46" fill="none" xmlns="http://www.w3.org/2000/svg">
<g opacity="0.15">
<path d="M11.9128 13.1647L5.40838 12.7117L12.2505 6.65331L11.9128 13.1647Z" fill="#FFBC5E"/>
<path d="M11.9128 13.1647L5.40838 12.7117L12.2505 6.65331L11.9128 13.1647Z" fill="#FFDB6E" fill-opacity="0.26"/>
</g>
<g opacity="0.15">
<rect x="13.8772" y="3.27107" width="19.3581" height="9.91227" fill="#FFBC5E"/>
<rect x="13.8772" y="3.27107" width="19.3581" height="9.91227" fill="#FFDB6E" fill-opacity="0.26"/>
</g>
<g opacity="0.15">
<path d="M31.2527 20.6662C34.9173 22.5057 37.4333 26.2963 37.4333 30.676C37.4331 36.8587 32.4207 41.8703 26.238 41.8703C23.6634 41.8703 21.2933 40.9993 19.4021 39.5383H3.03198V13.883H31.2527V20.6662Z" fill="#FFBC5E"/>
<path d="M31.2527 20.6662C34.9173 22.5057 37.4333 26.2963 37.4333 30.676C37.4331 36.8587 32.4207 41.8703 26.238 41.8703C23.6634 41.8703 21.2933 40.9993 19.4021 39.5383H3.03198V13.883H31.2527V20.6662Z" fill="#FFDB6E" fill-opacity="0.26"/>
</g>
<path fill-rule="evenodd" clip-rule="evenodd" d="M13.6051 0.666672C13.0896 0.666672 12.5953 0.871448 12.2308 1.23593L0.569256 12.8974C0.204776 13.2619 0 13.7563 0 14.2718V37.5947C0 40.8151 2.61052 43.4255 5.83075 43.4255H9.71791C10.7913 43.4255 11.6615 42.5553 11.6615 41.4819C11.6615 40.4085 10.7913 39.5383 9.71791 39.5383H5.83075C4.75735 39.5383 3.88717 38.6682 3.88717 37.5947V16.2153H13.6051C14.6785 16.2153 15.5487 15.3452 15.5487 14.2718V4.55384H29.1537C30.2272 4.55384 31.0973 5.42402 31.0973 6.49742V12.3282C31.0973 13.4016 31.9675 14.2718 33.0409 14.2718C34.1143 14.2718 34.9845 13.4016 34.9845 12.3282V6.49742C34.9845 3.27719 32.3741 0.666672 29.1537 0.666672H13.6051ZM11.6615 12.3282H6.6358L11.6615 7.30247V12.3282ZM20.4206 20.7157C20.6041 18.1995 22.7036 16.2153 25.2666 16.2153H27.2102C29.773 16.2153 31.8724 18.1995 32.0561 20.7157C34.3268 19.6166 37.095 20.4426 38.3764 22.6622L39.3482 24.3453C40.6296 26.5649 39.961 29.3751 37.8738 30.7922C39.961 32.2093 40.6296 35.0195 39.3482 37.2391L38.3764 38.9222C37.095 41.1418 34.3268 41.9678 32.0561 40.8687C31.8724 43.3849 29.773 45.3691 27.2102 45.3691H25.2666C22.7036 45.3691 20.6041 43.3849 20.4206 40.8687C18.15 41.9678 15.3817 41.1418 14.1003 38.9222L13.1285 37.2391C11.8471 35.0195 12.5157 32.2093 14.6029 30.7922C12.5157 29.3751 11.8471 26.5649 13.1285 24.3453L14.1003 22.6622C15.3817 20.4426 18.15 19.6166 20.4206 20.7157ZM25.2666 20.1025C24.7298 20.1025 24.2948 20.5377 24.2948 21.0743V22.9553C24.2948 23.6931 23.8769 24.3673 23.2161 24.6958C22.9592 24.8235 22.7112 24.9671 22.4735 25.1255C21.8583 25.5352 21.0642 25.5607 20.4241 25.191L18.7943 24.2501C18.3293 23.9817 17.735 24.1409 17.4666 24.6058L16.4948 26.2889C16.2266 26.7538 16.3858 27.3482 16.8507 27.6164L18.4811 28.5579C19.12 28.9268 19.4949 29.6255 19.4492 30.3617C19.4403 30.5038 19.4358 30.6474 19.4358 30.7922C19.4358 30.937 19.4403 31.0806 19.4492 31.2227C19.4949 31.9589 19.12 32.6577 18.4811 33.0265L16.8507 33.968C16.3858 34.2362 16.2266 34.8306 16.4948 35.2955L17.4666 36.9786C17.735 37.4435 18.3293 37.6027 18.7943 37.3343L20.4241 36.3934C21.0642 36.0237 21.8583 36.0492 22.4735 36.4589C22.7112 36.6173 22.9592 36.7609 23.2161 36.8886C23.8769 37.2171 24.2948 37.8913 24.2948 38.6291V40.5101C24.2948 41.0467 24.7298 41.4819 25.2666 41.4819H27.2102C27.7468 41.4819 28.182 41.0467 28.182 40.5101V38.6293C28.182 37.8913 28.5998 37.2171 29.2606 36.8886C29.5176 36.7609 29.7656 36.6173 30.0035 36.4589C30.6184 36.0492 31.4126 36.0237 32.0526 36.3934L33.6825 37.3343C34.1474 37.6027 34.7417 37.4435 35.01 36.9786L35.9817 35.2955C36.2502 34.8306 36.091 34.2362 35.6261 33.968L33.9956 33.0265C33.3567 32.6578 32.9818 31.9591 33.0275 31.2227C33.0364 31.0806 33.0409 30.937 33.0409 30.7922C33.0409 30.6474 33.0364 30.5038 33.0275 30.3617C32.9818 29.6253 33.3567 28.9266 33.9956 28.5579L35.6261 27.6164C36.091 27.3482 36.2502 26.7538 35.9817 26.2889L35.01 24.6058C34.7417 24.1409 34.1474 23.9817 33.6825 24.2501L32.0526 25.191C31.4126 25.5607 30.6184 25.5352 30.0035 25.1255C29.7656 24.9671 29.5176 24.8235 29.2606 24.6958C28.5998 24.3673 28.182 23.6931 28.182 22.9551V21.0743C28.182 20.5377 27.7468 20.1025 27.2102 20.1025H25.2666ZM30.1255 30.7922C30.1255 32.9391 28.3852 34.6794 26.2384 34.6794C24.0915 34.6794 22.3512 32.9391 22.3512 30.7922C22.3512 28.6453 24.0915 26.905 26.2384 26.905C28.3852 26.905 30.1255 28.6453 30.1255 30.7922Z" fill="#FFBC5E"/>
<path fill-rule="evenodd" clip-rule="evenodd" d="M13.6051 0.666672C13.0896 0.666672 12.5953 0.871448 12.2308 1.23593L0.569256 12.8974C0.204776 13.2619 0 13.7563 0 14.2718V37.5947C0 40.8151 2.61052 43.4255 5.83075 43.4255H9.71791C10.7913 43.4255 11.6615 42.5553 11.6615 41.4819C11.6615 40.4085 10.7913 39.5383 9.71791 39.5383H5.83075C4.75735 39.5383 3.88717 38.6682 3.88717 37.5947V16.2153H13.6051C14.6785 16.2153 15.5487 15.3452 15.5487 14.2718V4.55384H29.1537C30.2272 4.55384 31.0973 5.42402 31.0973 6.49742V12.3282C31.0973 13.4016 31.9675 14.2718 33.0409 14.2718C34.1143 14.2718 34.9845 13.4016 34.9845 12.3282V6.49742C34.9845 3.27719 32.3741 0.666672 29.1537 0.666672H13.6051ZM11.6615 12.3282H6.6358L11.6615 7.30247V12.3282ZM20.4206 20.7157C20.6041 18.1995 22.7036 16.2153 25.2666 16.2153H27.2102C29.773 16.2153 31.8724 18.1995 32.0561 20.7157C34.3268 19.6166 37.095 20.4426 38.3764 22.6622L39.3482 24.3453C40.6296 26.5649 39.961 29.3751 37.8738 30.7922C39.961 32.2093 40.6296 35.0195 39.3482 37.2391L38.3764 38.9222C37.095 41.1418 34.3268 41.9678 32.0561 40.8687C31.8724 43.3849 29.773 45.3691 27.2102 45.3691H25.2666C22.7036 45.3691 20.6041 43.3849 20.4206 40.8687C18.15 41.9678 15.3817 41.1418 14.1003 38.9222L13.1285 37.2391C11.8471 35.0195 12.5157 32.2093 14.6029 30.7922C12.5157 29.3751 11.8471 26.5649 13.1285 24.3453L14.1003 22.6622C15.3817 20.4426 18.15 19.6166 20.4206 20.7157ZM25.2666 20.1025C24.7298 20.1025 24.2948 20.5377 24.2948 21.0743V22.9553C24.2948 23.6931 23.8769 24.3673 23.2161 24.6958C22.9592 24.8235 22.7112 24.9671 22.4735 25.1255C21.8583 25.5352 21.0642 25.5607 20.4241 25.191L18.7943 24.2501C18.3293 23.9817 17.735 24.1409 17.4666 24.6058L16.4948 26.2889C16.2266 26.7538 16.3858 27.3482 16.8507 27.6164L18.4811 28.5579C19.12 28.9268 19.4949 29.6255 19.4492 30.3617C19.4403 30.5038 19.4358 30.6474 19.4358 30.7922C19.4358 30.937 19.4403 31.0806 19.4492 31.2227C19.4949 31.9589 19.12 32.6577 18.4811 33.0265L16.8507 33.968C16.3858 34.2362 16.2266 34.8306 16.4948 35.2955L17.4666 36.9786C17.735 37.4435 18.3293 37.6027 18.7943 37.3343L20.4241 36.3934C21.0642 36.0237 21.8583 36.0492 22.4735 36.4589C22.7112 36.6173 22.9592 36.7609 23.2161 36.8886C23.8769 37.2171 24.2948 37.8913 24.2948 38.6291V40.5101C24.2948 41.0467 24.7298 41.4819 25.2666 41.4819H27.2102C27.7468 41.4819 28.182 41.0467 28.182 40.5101V38.6293C28.182 37.8913 28.5998 37.2171 29.2606 36.8886C29.5176 36.7609 29.7656 36.6173 30.0035 36.4589C30.6184 36.0492 31.4126 36.0237 32.0526 36.3934L33.6825 37.3343C34.1474 37.6027 34.7417 37.4435 35.01 36.9786L35.9817 35.2955C36.2502 34.8306 36.091 34.2362 35.6261 33.968L33.9956 33.0265C33.3567 32.6578 32.9818 31.9591 33.0275 31.2227C33.0364 31.0806 33.0409 30.937 33.0409 30.7922C33.0409 30.6474 33.0364 30.5038 33.0275 30.3617C32.9818 29.6253 33.3567 28.9266 33.9956 28.5579L35.6261 27.6164C36.091 27.3482 36.2502 26.7538 35.9817 26.2889L35.01 24.6058C34.7417 24.1409 34.1474 23.9817 33.6825 24.2501L32.0526 25.191C31.4126 25.5607 30.6184 25.5352 30.0035 25.1255C29.7656 24.9671 29.5176 24.8235 29.2606 24.6958C28.5998 24.3673 28.182 23.6931 28.182 22.9551V21.0743C28.182 20.5377 27.7468 20.1025 27.2102 20.1025H25.2666ZM30.1255 30.7922C30.1255 32.9391 28.3852 34.6794 26.2384 34.6794C24.0915 34.6794 22.3512 32.9391 22.3512 30.7922C22.3512 28.6453 24.0915 26.905 26.2384 26.905C28.3852 26.905 30.1255 28.6453 30.1255 30.7922Z" fill="#FFDB6E" fill-opacity="0.26"/>
</svg>
