<svg width="50" height="40" viewBox="0 0 50 40" fill="none" xmlns="http://www.w3.org/2000/svg">
<g opacity="0.15">
<ellipse cx="24.8212" cy="22.4346" rx="18.2579" ry="15.3939" fill="#FFBC5E"/>
<ellipse cx="24.8212" cy="22.4346" rx="18.2579" ry="15.3939" fill="#FFDB6E" fill-opacity="0.26"/>
</g>
<path d="M25.3351 0.00521696C20.9952 -0.0953677 16.7467 1.26102 13.268 3.85783C9.78923 6.45463 7.28086 10.1421 6.14333 14.3315C6.02902 14.3585 6.25348 14.2899 6.14333 14.3315C-1.9104 19.6334 -2.00808 31.1872 5.62997 37.0711L5.64244 37.0565L5.62789 37.1189C8.06767 38.9607 11.0445 39.9508 14.1014 39.9371H24.8529L24.9153 39.9995H35.7062C49.6043 40.1096 55.1931 22.115 43.6768 14.3315C42.685 10.6744 40.6473 7.38637 37.8137 4.87071L37.7243 4.96008L37.7368 4.85616C34.3038 1.8281 29.9115 0.110048 25.3351 0.00521696ZM24.591 8.62218C27.1765 8.53905 29.8244 9.38703 31.8363 11.0123C33.0742 12.0456 34.0646 13.3435 34.7344 14.8104C35.4041 16.2772 35.7362 17.8757 35.7062 19.488V20.5646C43.0429 20.4191 43.0429 31.501 35.7062 31.3576H24.9132L24.8966 31.3763V31.2932H14.1014C13.3367 31.2932 12.5807 31.1302 11.8838 30.8151C11.0887 30.4551 10.3949 29.9076 9.85777 29.2197C9.32067 28.5317 8.95841 27.7237 8.80206 26.865C8.64571 26.0064 8.69993 25.1226 8.96006 24.2894C9.2202 23.4563 9.6785 22.6987 10.2957 22.0815C10.9128 21.4643 11.6705 21.006 12.5036 20.7459C13.3367 20.4858 14.2205 20.4316 15.0792 20.5879C15.9379 20.7443 16.7459 21.1065 17.4338 21.6436C18.1218 22.1807 18.6693 22.8766 19.0293 23.6717L25.2914 17.4117C23.2106 14.6992 20.2105 12.8403 16.8553 12.1845C16.8927 12.1637 16.9384 12.1305 16.9675 12.1367C17.9392 11.0706 19.115 10.2104 20.4252 9.60711C21.7354 9.00376 23.1534 8.66955 24.5952 8.62426L24.591 8.62218Z" fill="#FFBC5E"/>
<path d="M25.3351 0.00521696C20.9952 -0.0953677 16.7467 1.26102 13.268 3.85783C9.78923 6.45463 7.28086 10.1421 6.14333 14.3315C6.02902 14.3585 6.25348 14.2899 6.14333 14.3315C-1.9104 19.6334 -2.00808 31.1872 5.62997 37.0711L5.64244 37.0565L5.62789 37.1189C8.06767 38.9607 11.0445 39.9508 14.1014 39.9371H24.8529L24.9153 39.9995H35.7062C49.6043 40.1096 55.1931 22.115 43.6768 14.3315C42.685 10.6744 40.6473 7.38637 37.8137 4.87071L37.7243 4.96008L37.7368 4.85616C34.3038 1.8281 29.9115 0.110048 25.3351 0.00521696ZM24.591 8.62218C27.1765 8.53905 29.8244 9.38703 31.8363 11.0123C33.0742 12.0456 34.0646 13.3435 34.7344 14.8104C35.4041 16.2772 35.7362 17.8757 35.7062 19.488V20.5646C43.0429 20.4191 43.0429 31.501 35.7062 31.3576H24.9132L24.8966 31.3763V31.2932H14.1014C13.3367 31.2932 12.5807 31.1302 11.8838 30.8151C11.0887 30.4551 10.3949 29.9076 9.85777 29.2197C9.32067 28.5317 8.95841 27.7237 8.80206 26.865C8.64571 26.0064 8.69993 25.1226 8.96006 24.2894C9.2202 23.4563 9.6785 22.6987 10.2957 22.0815C10.9128 21.4643 11.6705 21.006 12.5036 20.7459C13.3367 20.4858 14.2205 20.4316 15.0792 20.5879C15.9379 20.7443 16.7459 21.1065 17.4338 21.6436C18.1218 22.1807 18.6693 22.8766 19.0293 23.6717L25.2914 17.4117C23.2106 14.6992 20.2105 12.8403 16.8553 12.1845C16.8927 12.1637 16.9384 12.1305 16.9675 12.1367C17.9392 11.0706 19.115 10.2104 20.4252 9.60711C21.7354 9.00376 23.1534 8.66955 24.5952 8.62426L24.591 8.62218Z" fill="#FFDB6E" fill-opacity="0.26"/>
</svg>
