<svg width="40" height="40" viewBox="0 0 40 40" fill="none" xmlns="http://www.w3.org/2000/svg">
<g opacity="0.15">
<ellipse cx="18.5749" cy="17.7098" rx="14.7072" ry="15.6741" fill="#FFBC5E"/>
<ellipse cx="18.5749" cy="17.7098" rx="14.7072" ry="15.6741" fill="#FFDB6E" fill-opacity="0.26"/>
</g>
<path d="M9.4599 17.6581H12.8799V26.3981C11.4653 25.5443 10.289 24.3473 9.4599 22.9181V17.6581ZM39.7579 35.718C39.913 35.8752 40 36.0871 40 36.308C40 36.5288 39.913 36.7408 39.7579 36.8979L36.8979 39.7579C36.7408 39.913 36.5288 40 36.308 40C36.0871 40 35.8752 39.913 35.718 39.7579L28.638 32.678C28.6341 32.6742 28.6302 32.6703 28.6264 32.6663C28.593 32.633 28.5797 32.5913 28.5547 32.5563C25.4898 34.7939 21.7929 35.9992 17.9981 35.998C8.05825 35.998 0 27.9397 0 17.9981C0 8.05658 8.05825 0 17.9998 0C27.9414 0 35.998 8.05825 35.998 17.9998C35.998 21.9481 34.7113 25.5881 32.5547 28.5547C32.5963 28.583 32.6413 28.6014 32.678 28.638L39.7579 35.718ZM31.378 17.9981C31.3737 15.358 30.5872 12.7783 29.1177 10.5849C27.6483 8.39148 25.5618 6.68269 23.1218 5.67432C20.6818 4.66596 17.9977 4.40325 15.4085 4.91937C12.8192 5.43549 10.441 6.70729 8.57416 8.57416C6.70729 10.441 5.43549 12.8192 4.91937 15.4085C4.40325 17.9977 4.66596 20.6818 5.67432 23.1218C6.68269 25.5618 8.39148 27.6483 10.5849 29.1177C12.7783 30.5872 15.358 31.3737 17.9981 31.378H18.0381C19.7926 31.3754 21.5293 31.0272 23.1492 30.3534C24.7691 29.6796 26.2404 28.6933 27.4791 27.4509C28.7179 26.2084 29.6997 24.7342 30.3687 23.1123C31.0377 21.4904 31.3806 19.7526 31.378 17.9981ZM23.2781 26.2981C24.7002 25.3908 25.8698 24.1387 26.6781 22.6581V19.7181H23.2781V26.2981ZM15.7782 27.878C16.5148 27.973 17.2565 28.0114 17.9981 27.998C18.6648 28.0397 19.3315 28.0397 19.9981 27.998V12.8199H15.7798V27.878H15.7782Z" fill="#FFBC5E"/>
<path d="M9.4599 17.6581H12.8799V26.3981C11.4653 25.5443 10.289 24.3473 9.4599 22.9181V17.6581ZM39.7579 35.718C39.913 35.8752 40 36.0871 40 36.308C40 36.5288 39.913 36.7408 39.7579 36.8979L36.8979 39.7579C36.7408 39.913 36.5288 40 36.308 40C36.0871 40 35.8752 39.913 35.718 39.7579L28.638 32.678C28.6341 32.6742 28.6302 32.6703 28.6264 32.6663C28.593 32.633 28.5797 32.5913 28.5547 32.5563C25.4898 34.7939 21.7929 35.9992 17.9981 35.998C8.05825 35.998 0 27.9397 0 17.9981C0 8.05658 8.05825 0 17.9998 0C27.9414 0 35.998 8.05825 35.998 17.9998C35.998 21.9481 34.7113 25.5881 32.5547 28.5547C32.5963 28.583 32.6413 28.6014 32.678 28.638L39.7579 35.718ZM31.378 17.9981C31.3737 15.358 30.5872 12.7783 29.1177 10.5849C27.6483 8.39148 25.5618 6.68269 23.1218 5.67432C20.6818 4.66596 17.9977 4.40325 15.4085 4.91937C12.8192 5.43549 10.441 6.70729 8.57416 8.57416C6.70729 10.441 5.43549 12.8192 4.91937 15.4085C4.40325 17.9977 4.66596 20.6818 5.67432 23.1218C6.68269 25.5618 8.39148 27.6483 10.5849 29.1177C12.7783 30.5872 15.358 31.3737 17.9981 31.378H18.0381C19.7926 31.3754 21.5293 31.0272 23.1492 30.3534C24.7691 29.6796 26.2404 28.6933 27.4791 27.4509C28.7179 26.2084 29.6997 24.7342 30.3687 23.1123C31.0377 21.4904 31.3806 19.7526 31.378 17.9981ZM23.2781 26.2981C24.7002 25.3908 25.8698 24.1387 26.6781 22.6581V19.7181H23.2781V26.2981ZM15.7782 27.878C16.5148 27.973 17.2565 28.0114 17.9981 27.998C18.6648 28.0397 19.3315 28.0397 19.9981 27.998V12.8199H15.7798V27.878H15.7782Z" fill="#FFDB6E" fill-opacity="0.26"/>
</svg>
